<?xml version="1.0" encoding="utf-8"?>
<!-- Generator: Adobe Illustrator 27.5.0, SVG Export Plug-In . SVG Version: 6.00 Build 0)  -->
<svg version="1.1" xmlns="http://www.w3.org/2000/svg" xmlns:xlink="http://www.w3.org/1999/xlink" x="0px" y="0px"
	 viewBox="0 0 3710 3710" style="enable-background:new 0 0 3710 3710;" xml:space="preserve">
<g id="Background">
	<g>
		<g>
			<rect style="fill:#FFFFFF;" width="3710" height="3710"/>
		</g>
	</g>
</g>
<g id="Illustration">
	<g>
		<linearGradient id="SVGID_1_" gradientUnits="userSpaceOnUse" x1="3380.7507" y1="3611.0137" x2="1498.7786" y2="1607.6245">
			<stop  offset="0" style="stop-color:#DAE3FE"/>
			<stop  offset="1" style="stop-color:#E9EFFD"/>
		</linearGradient>
		<path style="fill:url(#SVGID_1_);" d="M2815.69,2807.262c-69.475,71.612-131.638,113.708-179.233,145.488
			c-464.18,309.938-994.79,220.606-1158.841,190.073c-264.676-49.262-488.1-84.014-680.06-257.443
			c-436.193-394.083-414.977-1216.169-81.673-1725.415c39.52-60.382,372.32-553.694,904.077-623.206
			c13.006-1.7,22.71-2.668,31.21-3.568c82.262-8.71,592.021-54.677,1007.679,293.561c59.5,49.848,155.251,139.763,244.044,276.896
			C3227.561,1605.069,3228.589,2381.662,2815.69,2807.262z"/>
		<g>
			<path style="fill:#BDD0FB;" d="M2603.216,2785.465c-133.368-26.072-235.449-225.18-225.746-392.817
				c9.985-172.513,131.681-196.424,217.194-406.322c97.14-238.438-11.946-325.287,38.198-679.928
				c11.314-80.014,76.784-543.049,241.674-567.035c152.459-22.178,410.995,327.916,361.57,619.498
				c-35.242,207.912-201.123,233.034-241.485,475.472c-35.414,212.723,80.581,263.745,48.292,469.752
				C3003.605,2554.882,2778.33,2819.698,2603.216,2785.465z"/>
			<path style="fill:#F0F0F0;" d="M2570.53,2839.465c138.783-242.855,236.838-665.281,294.658-976.89
				c62.601-337.368,92.847-621.119,93.146-623.946l-11.494-1.211c-0.297,2.823-30.507,286.196-93.03,623.132
				c-57.655,310.7-155.344,731.747-293.317,973.182L2570.53,2839.465z"/>
		</g>
		<g>
			<path style="fill:#91B3FA;" d="M2000.243,2269.06c-226.681-66.283-369.933-419.912-276.855-562.548
				c62.891-96.376,192.893-33.924,285.457-139.258c118.183-134.488-24.269-315.351,33.538-598.042
				c49.194-240.573,231.19-495.089,370.461-477.908c145.785,17.984,284.296,338.558,207.425,563.278
				c-49.99,146.138-165.038,175.655-166.089,302.557c-1.219,147.25,153.051,183.682,181.029,320.654
				C2685.466,1923.835,2300.126,2356.747,2000.243,2269.06z"/>
			
				<linearGradient id="SVGID_00000098938009217487583620000013746136939801562245_" gradientUnits="userSpaceOnUse" x1="5810.3354" y1="1651.2301" x2="5545.9678" y2="2933.7754" gradientTransform="matrix(0.9809 -0.1946 0.1946 0.9809 -3827.1946 543.2809)">
				<stop  offset="0" style="stop-color:#09005D"/>
				<stop  offset="1" style="stop-color:#1A0F91"/>
			</linearGradient>
			<path style="fill:url(#SVGID_00000098938009217487583620000013746136939801562245_);" d="M2129.783,2341.2
				c-1.226,0.243-2.523,0.22-3.813-0.118c-4.56-1.193-7.287-5.854-6.094-10.411c161.008-615.269,111.693-1282.191,111.178-1288.856
				c-0.365-4.698,3.153-8.807,7.844-9.164c4.696-0.365,8.802,3.148,9.164,7.845c0.519,6.694,50.046,676.48-111.681,1294.493
				C2135.527,2338.256,2132.889,2340.584,2129.783,2341.2z"/>
			<path style="fill:#F0F0F0;" d="M2477.815,1168.102c-0.859,0.171-1.781,0.065-2.624-0.356c-2.011-1.013-2.822-3.462-1.81-5.474
				c64.074-127.408,126.463-312.098,59.794-468.442c-39.704-93.111-107.256-132.38-107.933-132.765
				c-1.956-1.114-2.64-3.6-1.527-5.558c1.115-1.958,3.605-2.643,5.561-1.525c2.864,1.628,70.626,41.033,111.399,136.652
				c37.475,87.879,57.484,241.677-60.008,475.299C2480.078,1167.101,2479.004,1167.866,2477.815,1168.102z"/>
			<path style="fill:#F0F0F0;" d="M1971.997,2223.724c-1.276,0.253-2.65-0.107-3.647-1.083
				c-170.376-166.606-244.991-306.656-221.768-416.255c20.646-97.442,114.453-133.426,115.398-133.781
				c2.118-0.773,4.455,0.29,5.243,2.398c0.785,2.105-0.285,4.456-2.393,5.243c-0.903,0.338-90.636,34.885-110.293,127.934
				c-22.532,106.677,51.321,244.158,219.512,408.629c1.611,1.576,1.64,4.155,0.067,5.766
				C1973.517,2223.187,1972.776,2223.57,1971.997,2223.724z"/>
		</g>
		<g>
			<g>
				
					<linearGradient id="SVGID_00000067929114723430981580000004409293010852948118_" gradientUnits="userSpaceOnUse" x1="2409.0811" y1="1120.0892" x2="3630.7893" y2="-522.21">
					<stop  offset="0" style="stop-color:#4F52FF"/>
					<stop  offset="1" style="stop-color:#4042E2"/>
				</linearGradient>
				<path style="fill:url(#SVGID_00000067929114723430981580000004409293010852948118_);" d="M860.685,1836.462
					c0,538.492,453.043,975.027,1011.899,975.027s1036.928-455.609,1036.928-994.102c0-538.492-478.072-955.952-1036.928-955.952
					S860.685,1297.971,860.685,1836.462z"/>
				<g>
					<path style="fill:#BDD0FB;" d="M2830.063,1599.384c0.601,0,1.202-0.066,1.802-0.223c3.732-0.96,5.95-4.643,4.961-8.245
						c-10.891-39.397-24.798-78.481-41.345-116.155c-1.509-3.419-5.629-4.984-9.158-3.576c-3.555,1.459-5.212,5.402-3.711,8.836
						c16.294,37.083,29.99,75.56,40.703,114.366C2824.147,1597.399,2826.979,1599.384,2830.063,1599.384z"/>
					<path style="fill:#BDD0FB;" d="M2675.433,1294.683c1.459,0,2.939-0.448,4.202-1.354c3.078-2.236,3.692-6.469,1.371-9.428
						c-187.479-239.556-489.469-382.563-807.823-382.563c-135.96,0-267.467,26.564-390.853,78.927
						c-3.528,1.5-5.131,5.485-3.575,8.877c1.548,3.405,5.679,4.944,9.213,3.458c121.598-51.626,251.208-77.797,385.216-77.797
						c313.994,0,611.805,141.008,796.661,377.197C2671.222,1293.763,2673.31,1294.683,2675.433,1294.683z"/>
				</g>
				<path style="fill:#BDD0FB;" d="M998.356,1836.462c0,466.125,392.159,843.992,875.91,843.992s897.575-394.379,897.575-860.502
					c0-466.124-413.824-827.484-897.575-827.484S998.356,1370.338,998.356,1836.462z"/>
				<path style="fill:#BDD0FB;" d="M998.359,1836.462c0-466.124,392.157-843.993,875.908-843.993
					c261.949,0,503.358,105.998,669.697,277.172l-674.739,540.963l-138.709,858.473
					C1315.165,2602.989,998.359,2255.404,998.359,1836.462z"/>
				<path style="fill:#91B3FA;" d="M1117.578,1777.787c0,420.669,361.269,761.688,806.913,761.688
					c445.647,0,826.873-355.919,826.873-776.588c0-420.669-381.226-746.787-826.873-746.787
					C1478.848,1016.101,1117.578,1357.12,1117.578,1777.787z"/>
				
					<linearGradient id="SVGID_00000132066129549251309870000004367769881859159446_" gradientUnits="userSpaceOnUse" x1="2741.2261" y1="1570.9717" x2="4056.3999" y2="-705.5446">
					<stop  offset="0" style="stop-color:#3E30CB"/>
					<stop  offset="1" style="stop-color:#1D129D"/>
				</linearGradient>
				<path style="fill:url(#SVGID_00000132066129549251309870000004367769881859159446_);" d="M2547.996,1792.688
					c2.167,35.826,34.059,63.179,71.243,61.093c37.179-2.086,65.567-32.818,63.402-68.644
					c-2.164-35.825-34.061-63.179-71.242-61.093C2574.22,1726.128,2545.833,1756.86,2547.996,1792.688z"/>
				<path style="opacity:0.78;fill:#FFFFFF;" d="M1091.092,1874.396c2.162,35.826,34.06,63.178,71.239,61.093
					c37.182-2.085,65.569-32.819,63.405-68.645c-2.164-35.825-34.06-63.179-71.24-61.092
					C1117.314,1807.837,1088.926,1838.569,1091.092,1874.396z"/>
				
					<linearGradient id="SVGID_00000048463592555215950700000010230015633067531698_" gradientUnits="userSpaceOnUse" x1="2610.644" y1="1495.5326" x2="3925.8137" y2="-780.9767">
					<stop  offset="0" style="stop-color:#3E30CB"/>
					<stop  offset="1" style="stop-color:#1D129D"/>
				</linearGradient>
				<path style="fill:url(#SVGID_00000048463592555215950700000010230015633067531698_);" d="M2005.858,2457.5
					c-36.638,6.448-60.913,40.294-54.221,75.597c6.692,35.303,41.819,58.695,78.455,52.246
					c36.637-6.448,60.913-40.294,54.221-75.596C2077.621,2474.442,2042.496,2451.052,2005.858,2457.5z"/>
				
					<linearGradient id="SVGID_00000030447745082442234610000008804694221172083643_" gradientUnits="userSpaceOnUse" x1="1814.8634" y1="1035.7994" x2="3130.0388" y2="-1240.7195">
					<stop  offset="0" style="stop-color:#3E30CB"/>
					<stop  offset="1" style="stop-color:#1D129D"/>
				</linearGradient>
				<path style="fill:url(#SVGID_00000030447745082442234610000008804694221172083643_);" d="M1743.641,1074.19
					c-36.639,6.448-60.915,40.293-54.223,75.596c6.692,35.304,41.816,58.693,78.455,52.245
					c36.637-6.447,60.914-40.293,54.223-75.595C1815.405,1091.133,1780.278,1067.743,1743.641,1074.19z"/>
				<path style="opacity:0.78;fill:#FFFFFF;" d="M1526.432,2494.64c-6.855,16.66-5.143,32.259,3.823,34.843
					c8.965,2.582,21.79-8.83,28.641-25.487c6.853-16.66,5.14-32.262-3.824-34.845
					C1546.107,2466.568,1533.282,2477.98,1526.432,2494.64z"/>
				
					<linearGradient id="SVGID_00000052063156374443742490000016520340457583153556_" gradientUnits="userSpaceOnUse" x1="2115.825" y1="1209.6691" x2="3430.9983" y2="-1066.8462">
					<stop  offset="0" style="stop-color:#3E30CB"/>
					<stop  offset="1" style="stop-color:#1D129D"/>
				</linearGradient>
				<path style="fill:url(#SVGID_00000052063156374443742490000016520340457583153556_);" d="M2112.544,1182.57
					c-6.853,16.66-5.141,32.259,3.824,34.842c8.967,2.585,21.79-8.828,28.644-25.486c6.853-16.661,5.141-32.262-3.825-34.845
					C2132.221,1154.5,2119.397,1165.912,2112.544,1182.57z"/>
				<path style="opacity:0.78;fill:#FFFFFF;" d="M1220.401,2245.218c-14.833,10.811-21.777,25-15.506,31.692
					c6.271,6.695,23.378,3.357,38.214-7.451c14.834-10.812,21.775-25.001,15.505-31.692
					C1252.343,2231.072,1235.234,2234.409,1220.401,2245.218z"/>
				
					<linearGradient id="SVGID_00000040567069492467670550000002310992962353622439_" gradientUnits="userSpaceOnUse" x1="2453.7471" y1="1404.8909" x2="3768.9194" y2="-871.6228">
					<stop  offset="0" style="stop-color:#3E30CB"/>
					<stop  offset="1" style="stop-color:#1D129D"/>
				</linearGradient>
				<path style="fill:url(#SVGID_00000040567069492467670550000002310992962353622439_);" d="M2428.334,1417.106
					c-14.833,10.81-21.776,24.999-15.506,31.691c6.268,6.696,23.379,3.358,38.213-7.451c14.835-10.809,21.777-25,15.506-31.693
					C2460.277,1402.96,2443.169,1406.298,2428.334,1417.106z"/>
				<path style="opacity:0.78;fill:#FFFFFF;" d="M1181.964,1502.306c-16.792-7.703-33.06-7.102-36.334,1.346
					c-3.277,8.446,7.68,21.538,24.472,29.243c16.793,7.704,33.062,7.103,36.336-1.345
					C1209.713,1523.104,1198.756,1510.011,1181.964,1502.306z"/>
				<path style="opacity:0.78;fill:#FFFFFF;" d="M2501.34,2153.67c-16.793-7.704-33.06-7.103-36.335,1.344
					c-3.277,8.447,7.681,21.54,24.473,29.243c16.79,7.706,33.06,7.101,36.335-1.344
					C2529.09,2174.468,2518.13,2161.374,2501.34,2153.67z"/>
				<path style="fill:#91B3FA;" d="M1460.732,1224.795c-10.198-14.986-24.427-22.611-31.778-17.03
					c-7.351,5.581-5.04,22.252,5.158,37.239c10.199,14.984,24.43,22.609,31.776,17.029
					C1473.241,1256.452,1470.93,1239.779,1460.732,1224.795z"/>
				
					<linearGradient id="SVGID_00000045579473648698735070000010873120734624378762_" gradientUnits="userSpaceOnUse" x1="2224.0208" y1="1433.1692" x2="2224.0208" y2="2094.092">
					<stop  offset="0" style="stop-color:#3E30CB"/>
					<stop  offset="1" style="stop-color:#1D129D"/>
				</linearGradient>
				<path style="fill:url(#SVGID_00000045579473648698735070000010873120734624378762_);" d="M2237.33,2441.562
					c-10.199-14.984-24.429-22.608-31.778-17.028c-7.35,5.578-5.041,22.249,5.158,37.235c10.198,14.986,24.428,22.611,31.778,17.031
					C2249.84,2473.219,2247.529,2456.548,2237.33,2441.562z"/>
				
					<linearGradient id="SVGID_00000160892871702754215620000002303156660980509853_" gradientUnits="userSpaceOnUse" x1="5187.7148" y1="240.9008" x2="3324.9263" y2="2684.5586" gradientTransform="matrix(-0.0305 -0.9995 -0.9995 0.0305 4912.793 5520.5835)">
					<stop  offset="0" style="stop-color:#FF928E"/>
					<stop  offset="1" style="stop-color:#FE7062"/>
				</linearGradient>
				<path style="fill:url(#SVGID_00000160892871702754215620000002303156660980509853_);" d="M1901.542,1810.307l541.727,260.336
					c10.496,5.042,22.78-2.532,22.423-13.827l-2.127-67.194c-0.412-13.068,15.564-20.311,25.75-11.667l391.688,332.298
					c11.982,10.168,2.126,29.043-13.486,25.829l-504.475-103.792c-12.071-2.484-16.439-16.903-7.649-25.253l59.061-56.117
					c7.299-6.936,5.73-18.666-3.154-23.594l-524.41-290.693c-7.303-4.048-9.916-12.975-5.883-20.106l0,0
					C1884.999,1809.468,1894.074,1806.72,1901.542,1810.307z"/>
				<path style="opacity:0.72;fill:#FFFFFF;" d="M2820.094,2308.7c5.036,0,9.594-2.708,11.894-7.271
					c2.75-5.459,1.337-11.703-3.516-15.57l-85.711-68.275c-2.97-2.367-7.384-1.96-9.834,0.907c-2.462,2.866-2.041,7.102,0.936,9.481
					l85.712,68.276c-114.207-25.131-381.689-81.295-387.237-81.834c-3.746-0.419-7.268,2.302-7.664,6.01
					c-0.381,3.656,2.334,6.918,6.088,7.365c8.017,1.237,213.001,44.158,386.369,80.596
					C2818.128,2308.594,2819.117,2308.7,2820.094,2308.7z"/>
				
					<linearGradient id="SVGID_00000097495987010486867020000010858161185326047672_" gradientUnits="userSpaceOnUse" x1="5928.4253" y1="805.5396" x2="4065.6372" y2="3249.1963" gradientTransform="matrix(-0.0305 -0.9995 -0.9995 0.0305 4912.793 5520.5835)">
					<stop  offset="0" style="stop-color:#FF928E"/>
					<stop  offset="1" style="stop-color:#FE7062"/>
				</linearGradient>
				<path style="fill:url(#SVGID_00000097495987010486867020000010858161185326047672_);" d="M1845.034,1784.669l1.075-510.375
					c-0.178-11.3-12.808-18.324-23.051-12.822l-60.94,32.728c-11.854,6.366-25.878-3.972-22.6-16.662l126.036-487.974
					c3.856-14.926,25.783-15.18,30.005-0.342l136.417,479.355c3.263,11.47-8.014,21.841-19.754,18.16l-78.88-24.714
					c-9.751-3.056-19.836,3.683-20.287,13.552l-37.022,509.524c-0.369,8.111-7.393,14.453-15.82,14.282l0,0
					C1851.871,1799.211,1845.163,1792.71,1845.034,1784.669z"/>
				<path style="opacity:0.72;fill:#FFFFFF;" d="M1990.115,1221.779c0.852,0,1.714-0.145,2.552-0.46
					c3.55-1.342,5.317-5.168,4.007-8.601c-2.539-7.39-57.279-202.524-103.461-367.636c-1.639-5.839-6.789-9.678-13.237-9.533
					c-6.292,0.156-11.41,4.245-12.741,10.176l-23.487,104.741c-0.811,3.63,1.583,7.221,5.357,7.996
					c3.733,0.802,7.478-1.513,8.304-5.155l23.488-104.74c29.381,109.278,100.677,363.929,102.717,368.939
					C1984.691,1220.162,1987.324,1221.779,1990.115,1221.779z"/>
				
					<linearGradient id="SVGID_00000177451381227080879270000013025971421379132311_" gradientUnits="userSpaceOnUse" x1="2520.9705" y1="1007.1681" x2="2020.2711" y2="1634.7113">
					<stop  offset="0" style="stop-color:#FF928E"/>
					<stop  offset="0.6733" style="stop-color:#FE7B70"/>
					<stop  offset="1" style="stop-color:#FE7062"/>
				</linearGradient>
				
					<ellipse style="fill:url(#SVGID_00000177451381227080879270000013025971421379132311_);" cx="1878.791" cy="1812.032" rx="72.022" ry="69.399"/>
			</g>
		</g>
		<g>
			
				<linearGradient id="SVGID_00000081622797410805606060000004528311374423323791_" gradientUnits="userSpaceOnUse" x1="-4869.3379" y1="3163.0562" x2="-4597.5977" y2="3163.0562" gradientTransform="matrix(-1 0 0 1 -3471.8828 0)">
				<stop  offset="0" style="stop-color:#4F52FF"/>
				<stop  offset="1" style="stop-color:#4042E2"/>
			</linearGradient>
			<path style="fill:url(#SVGID_00000081622797410805606060000004528311374423323791_);" d="M1133.389,3149.913
				c46.552,4.024,127.346,10.56,191.04,13.364c38.289,1.685,60.331-2.064,73.026-7.147c-0.022,1.431-0.062,2.784-0.118,4.04
				c-0.301,6.702-5.747,12.065-12.517,12.443c-120.354,6.718-216.071,2.324-250.147,0.251c-7.046-0.43-11.245-8.087-7.642-14.093
				C1128.834,3155.766,1131.017,3152.822,1133.389,3149.913z"/>
			
				<linearGradient id="SVGID_00000040556467808504959310000001612343693114375338_" gradientUnits="userSpaceOnUse" x1="-4869.3535" y1="3109.7986" x2="-4605.2715" y2="3109.7986" gradientTransform="matrix(-1 0 0 1 -3471.8828 0)">
				<stop  offset="0" style="stop-color:#09005D"/>
				<stop  offset="1" style="stop-color:#1A0F91"/>
			</linearGradient>
			<path style="fill:url(#SVGID_00000040556467808504959310000001612343693114375338_);" d="M1324.429,3163.277
				c-63.694-2.804-144.488-9.34-191.04-13.364c45.769-56.153,191.04-94.001,191.04-94.001h41.03
				c28.22,40.678,32.306,79.406,31.997,100.218C1384.76,3161.212,1362.718,3164.962,1324.429,3163.277z"/>
			
				<linearGradient id="SVGID_00000119831345042485068050000003188284422410719887_" gradientUnits="userSpaceOnUse" x1="-4844.25" y1="3035.4438" x2="-4767.7065" y2="3035.4438" gradientTransform="matrix(-1 0 0 1 -3471.8828 0)">
				<stop  offset="0" style="stop-color:#FEBBBA"/>
				<stop  offset="1" style="stop-color:#FF928E"/>
			</linearGradient>
			<path style="fill:url(#SVGID_00000119831345042485068050000003188284422410719887_);" d="M1372.368,2988.93l-3.84,75.979
				c-0.416,8.228-6.575,15.142-14.815,16.32c-8.198,1.173-19.178,1.323-30.821-2.554c-7.163-2.384-12.481-8.419-13.802-15.781
				l-13.267-73.964H1372.368z"/>
			<g>
				
					<linearGradient id="SVGID_00000121989145395637578730000007364485024192274575_" gradientUnits="userSpaceOnUse" x1="-5354.3579" y1="3230.439" x2="-5250.2231" y2="3230.439" gradientTransform="matrix(-1 0 0 1 -3471.8828 0)">
					<stop  offset="0" style="stop-color:#4F52FF"/>
					<stop  offset="1" style="stop-color:#4042E2"/>
				</linearGradient>
				<path style="fill:url(#SVGID_00000121989145395637578730000007364485024192274575_);" d="M1848.566,3237.561
					c20.189-3.639,29.322-17.193,33.152-31.683c0.026,0.131,0.051,0.26,0.075,0.39c2.97,15.285-3.915,31.127-17.681,38.661
					c-16.638,9.106-34.83,10.658-48.953,9.905c-15.152-0.807-29.061-8.911-36.705-21.88l-0.115-0.195
					C1793.549,3242.485,1814.899,3243.63,1848.566,3237.561z"/>
				
					<linearGradient id="SVGID_00000139996015640958732410000004424696131535278987_" gradientUnits="userSpaceOnUse" x1="-5353.6006" y1="3126.812" x2="-5200.7505" y2="3126.812" gradientTransform="matrix(-1 0 0 1 -3471.8828 0)">
					<stop  offset="0" style="stop-color:#09005D"/>
					<stop  offset="1" style="stop-color:#1A0F91"/>
				</linearGradient>
				<path style="fill:url(#SVGID_00000139996015640958732410000004424696131535278987_);" d="M1753.384,3012.34h33.836
					c51.54-1.362,83.904,139.131,94.498,193.538c-3.83,14.49-12.964,28.044-33.152,31.683c-33.667,6.069-55.016,4.924-70.225-4.803
					c-27.844-47.355-41.649-116.711-48.284-157.188C1722.509,3029.535,1753.384,3012.34,1753.384,3012.34z"/>
			</g>
			
				<linearGradient id="SVGID_00000062898387844010109630000010287133695898515855_" gradientUnits="userSpaceOnUse" x1="-5274.1514" y1="2995.5291" x2="-5182.6738" y2="2995.5291" gradientTransform="matrix(-1 0 0 1 -3471.8828 0)">
				<stop  offset="0" style="stop-color:#FEBBBA"/>
				<stop  offset="1" style="stop-color:#FF928E"/>
			</linearGradient>
			<path style="fill:url(#SVGID_00000062898387844010109630000010287133695898515855_);" d="M1782.871,2941.817l18.788,74.729
				c2.304,9.163-2.082,18.64-10.553,22.987c-10.511,5.394-25.309,11.062-38.909,9.421c-6.396-0.771-11.709-5.276-13.823-11.299
				l-27.584-78.623L1782.871,2941.817z"/>
			
				<linearGradient id="SVGID_00000078744168304209633030000005026292641346812850_" gradientUnits="userSpaceOnUse" x1="2280.3433" y1="883.7404" x2="1539.3066" y2="2305.7312">
				<stop  offset="0" style="stop-color:#09005D"/>
				<stop  offset="1" style="stop-color:#1A0F91"/>
			</linearGradient>
			<path style="fill:url(#SVGID_00000078744168304209633030000005026292641346812850_);" d="M1121.927,1957.595
				c0,0,167.905,1049.551,165.14,1055.319c0,0,46.374,21.078,96.929,2.686c0,0-15.183-561.06-50.761-776.184
				c0,0,286.557,501.478,377.557,751.354c0,0,47.462-5.66,86.75-31.516c0,0-308.542-902.636-390.858-1022.862L1121.927,1957.595z"/>
			
				<linearGradient id="SVGID_00000085945319883623430010000003551810028191885965_" gradientUnits="userSpaceOnUse" x1="709.2779" y1="1604.5327" x2="1547.6024" y2="1604.5327">
				<stop  offset="0" style="stop-color:#090056"/>
				<stop  offset="1" style="stop-color:#020039"/>
			</linearGradient>
			<path style="fill:url(#SVGID_00000085945319883623430010000003551810028191885965_);" d="M1095.455,1224.751
				c-11.997,0.705-23.829,3.007-35.172,6.937c-123.053,42.641-219.687,31.911-293.976-1.653
				c-17.219,22.859-44.949,70.403-57.029,150.319c135.226,100.646,305.287,74.126,360.901,61.691
				c-14.557,108.023-14.421,278.903,45.032,529.409c1.556,6.555,7.191,11.409,13.973,11.969
				c37.991,3.137,165.151,10.599,287.413-16.864c5.487-1.233,8.488-7.132,6.307-12.264l-1.111-2.617
				c-10.194-23.985-14.752-49.916-13.29-75.895c4.435-78.909,25.667-257.209,70.922-379.407c2.632,4.452,5.088,8.844,7.466,13.21
				c8.193-80.371,38.976-159.43,60.711-239.159C1370.548,1214.154,1160.009,1220.967,1095.455,1224.751z"/>
			
				<linearGradient id="SVGID_00000165917986665125541260000013811967128793553588_" gradientUnits="userSpaceOnUse" x1="-4823.4839" y1="1373.2914" x2="-4783.8472" y2="1165.2003" gradientTransform="matrix(-1 0 0 1 -3471.8828 0)">
				<stop  offset="0" style="stop-color:#FEBBBA"/>
				<stop  offset="1" style="stop-color:#FF928E"/>
			</linearGradient>
			<path style="fill:url(#SVGID_00000165917986665125541260000013811967128793553588_);" d="M1371.658,1078.822
				c0,0,12.368,130.774,23.259,169.457c1.652,5.869-0.897,12.057-6.229,15.104c-18.483,10.561-62.812,27.787-123.449-1.931
				c-9.823-4.814-15.729-15.054-15.271-25.891l5.342-126.37L1371.658,1078.822z"/>
			<g>
				
					<linearGradient id="SVGID_00000173162809183292657050000004958410018722834876_" gradientUnits="userSpaceOnUse" x1="-4716.2334" y1="991.5107" x2="-4942.3828" y2="1164.5497" gradientTransform="matrix(-1 0 0 1 -3471.8828 0)">
					<stop  offset="0" style="stop-color:#FEBBBA"/>
					<stop  offset="1" style="stop-color:#FF928E"/>
				</linearGradient>
				<path style="fill:url(#SVGID_00000173162809183292657050000004958410018722834876_);" d="M1252.643,911.521
					c0,0-39.56,90.875-42.216,138.572c-2.657,47.697-12.935,78.647,42.216,88.252c55.151,9.605,101.61-17.869,126.78-65.381
					c0,0,39.436-73.211,30.589-103.193C1401.166,939.789,1252.643,911.521,1252.643,911.521z"/>
				
					<linearGradient id="SVGID_00000166658218222234498270000018177515236136153770_" gradientUnits="userSpaceOnUse" x1="-4898.9277" y1="872.7498" x2="-4688.3047" y2="1143.9264" gradientTransform="matrix(-1 0 0 1 -3471.8828 0)">
					<stop  offset="0" style="stop-color:#09005D"/>
					<stop  offset="1" style="stop-color:#1A0F91"/>
				</linearGradient>
				<path style="fill:url(#SVGID_00000166658218222234498270000018177515236136153770_);" d="M1360.577,1038.803l-3.14-1.384
					c-3.997-1.762-5.707-6.519-3.699-10.399c7.777-15.026,22.938-49.46,3.352-57.493c-18.454-7.568-38.421-11.816-57.394-17.891
					c-17.608-5.637-51.814-11.539-60.997-30.119c-2.655-5.372,0.254-11.709,3.118-16.973c5.36-9.854,10.72-19.707,16.08-29.561
					c4.531-8.33,9.221-16.859,16.441-23.005c16.528-14.071,36.25-1.72,54.543,1.656c68.038,12.557,113.021,40.09,114.141,87.105
					c0.071,2.987,3.248,4.648,5.8,3.093c5.024-3.061,13.063-4.498,23.806,4.536c18.685,15.712,11.039,56.468-29.923,89.993
					c-1.945,1.593-1.93,4.631,0.177,6.002c7.426,4.834,18.496,16.336-10.188,31.67c-29.669,15.859-51.824,14.558-60.355,13.15
					c-2.123-0.351-3.49-2.405-3.027-4.506l9.105-41.322c0.516-2.339-1.265-4.554-3.66-4.554H1360.577z"/>
				
					<linearGradient id="SVGID_00000145030213798182237080000003684101037872658827_" gradientUnits="userSpaceOnUse" x1="-4744.2837" y1="954.8492" x2="-4970.4346" y2="1127.8888" gradientTransform="matrix(-1 0 0 1 -3471.8828 0)">
					<stop  offset="0" style="stop-color:#FEBBBA"/>
					<stop  offset="1" style="stop-color:#FF928E"/>
				</linearGradient>
				<path style="fill:url(#SVGID_00000145030213798182237080000003684101037872658827_);" d="M1358.864,1047.523
					c0,0,15.092-58.049,41.118-41.773c26.026,16.276-13.505,65.042-34.429,67.214L1358.864,1047.523z"/>
			</g>
			<g>
				<g>
					
						<linearGradient id="SVGID_00000075144106562944387700000015044354686846782094_" gradientUnits="userSpaceOnUse" x1="1421.9442" y1="839.4527" x2="914.5784" y2="1226.6522" gradientTransform="matrix(0.9906 0.1368 -0.1368 0.9906 676.1831 -429.2192)">
						<stop  offset="0" style="stop-color:#FF928E"/>
						<stop  offset="1" style="stop-color:#FE7062"/>
					</linearGradient>
					<path style="fill:url(#SVGID_00000075144106562944387700000015044354686846782094_);" d="M1219.927,926.967
						c64.704-191.826,333.159-70.898,244.639,96.241C1371.635,981.126,1263.386,913.696,1219.927,926.967z"/>
				</g>
				
					<linearGradient id="SVGID_00000061455050974686793530000011393944666496377239_" gradientUnits="userSpaceOnUse" x1="1400.0399" y1="810.7686" x2="892.6799" y2="1197.9637" gradientTransform="matrix(0.9906 0.1368 -0.1368 0.9906 676.1831 -429.2192)">
					<stop  offset="0" style="stop-color:#FF928E"/>
					<stop  offset="1" style="stop-color:#FE7062"/>
				</linearGradient>
				<path style="fill:url(#SVGID_00000061455050974686793530000011393944666496377239_);" d="M1378.144,977.97l-168.721,22.171
					c-4.285,0.563-8.564-1.161-11.238-4.556c-19.466-24.705-44.29-38.42-73.355-43.437c-3.677-0.635-3.793-5.885-0.159-6.734
					l101.78-23.776c0.113-0.026,0.228-0.045,0.344-0.055c51.935-4.417,102.373,19.042,152.278,52.411
					C1380.736,975.107,1380.129,977.709,1378.144,977.97z"/>
			</g>
			<g>
				
					<linearGradient id="SVGID_00000022546802144203395210000016511047943244990650_" gradientUnits="userSpaceOnUse" x1="-630.8431" y1="987.0089" x2="806.8333" y2="1990.0391" gradientTransform="matrix(-1 0 0 1 1563.5464 0)">
					<stop  offset="0" style="stop-color:#FF928E"/>
					<stop  offset="1" style="stop-color:#FE7062"/>
				</linearGradient>
				<path style="fill:url(#SVGID_00000022546802144203395210000016511047943244990650_);" d="M1414.836,1946.581
					c38.696,0.735,70.461-30.432,70.461-69.135v-307.666c0-40.423-32.486-73.314-72.906-73.754
					c-121.311-1.321-371.509-1.387-576.226,15.865c-27.935,2.354-49.665,25.25-50.678,53.267l-19.133,297.451
					c-1.422,39.344,29.684,72.214,69.047,72.962L1414.836,1946.581z"/>
				<path style="fill:#FFFFFF;" d="M1415.035,1603.069c0.516,26.179-0.261,67.716-0.898,94.553
					c-0.331,13.962-12.589,24.602-26.46,22.976l-99.835-11.701c-13.3-1.559-22.67-13.817-20.685-27.06l12.254-81.75
					c1.74-11.606,11.71-20.192,23.445-20.192h88.477C1404.225,1579.895,1414.781,1590.179,1415.035,1603.069z"/>
				<path style="opacity:0.37;fill:#FFFFFF;" d="M1154.133,1757.996l-83.281,8.984c-11.653,1.259-21.597-8.353-20.738-20.042
					l18.206-247.735c34.911-1.107,69.346-1.914,102.573-2.481v242.607C1170.894,1748.918,1163.667,1756.967,1154.133,1757.996z"/>
				<path style="fill:#FFFFFF;" d="M1119.999,1715.058c-0.256,4.456-3.948,7.892-8.355,7.892c-0.164,0-0.328-0.006-0.491-0.016
					c-4.619-0.267-8.148-4.227-7.875-8.846l12.557-216.214c5.631-0.139,11.216-0.265,16.801-0.389L1119.999,1715.058z"/>
				<g>
					
						<linearGradient id="SVGID_00000147184012357470140130000007861165113742112402_" gradientUnits="userSpaceOnUse" x1="226.2824" y1="1595.2075" x2="47.5717" y2="1854.8961" gradientTransform="matrix(-1 0 0 1 1563.5464 0)">
						<stop  offset="0" style="stop-color:#09005D"/>
						<stop  offset="1" style="stop-color:#1A0F91"/>
					</linearGradient>
					<path style="fill:url(#SVGID_00000147184012357470140130000007861165113742112402_);" d="M1368.865,1681.109
						c1.462,0,2.694-1.134,2.787-2.618l4.319-68.101c0.098-1.538-1.069-2.864-2.612-2.962c-1.62-0.126-2.863,1.074-2.962,2.613
						l-4.319,68.102c-0.098,1.538,1.069,2.863,2.612,2.961C1368.75,1681.109,1368.81,1681.109,1368.865,1681.109z"/>
					
						<linearGradient id="SVGID_00000062901807449095968090000009608653441609248189_" gradientUnits="userSpaceOnUse" x1="232.7083" y1="1599.6299" x2="53.9978" y2="1859.3184" gradientTransform="matrix(-1 0 0 1 1563.5464 0)">
						<stop  offset="0" style="stop-color:#09005D"/>
						<stop  offset="1" style="stop-color:#1A0F91"/>
					</linearGradient>
					<path style="fill:url(#SVGID_00000062901807449095968090000009608653441609248189_);" d="M1359.975,1681.109
						c1.5,0,2.743-1.189,2.792-2.7l2.263-69.405c0.049-1.544-1.162-2.836-2.699-2.886c-1.779-0.087-2.831,1.162-2.885,2.7
						l-2.264,69.405c-0.049,1.544,1.162,2.836,2.7,2.885C1359.882,1681.109,1359.947,1681.109,1359.975,1681.109z"/>
					
						<linearGradient id="SVGID_00000170277350190502834800000017224376524110903973_" gradientUnits="userSpaceOnUse" x1="240.4617" y1="1604.9653" x2="61.7509" y2="1864.6542" gradientTransform="matrix(-1 0 0 1 1563.5464 0)">
						<stop  offset="0" style="stop-color:#09005D"/>
						<stop  offset="1" style="stop-color:#1A0F91"/>
					</linearGradient>
					<path style="fill:url(#SVGID_00000170277350190502834800000017224376524110903973_);" d="M1347.922,1681.103
						c-1.543-0.071-2.732-1.38-2.656-2.917c1.107-23.315,3.218-67.786,3.25-69.301c0.011-1.528,1.26-2.766,2.792-2.766
						c1.543,0,2.793,1.249,2.793,2.793c0,1.15-2.716,58.127-3.261,69.536c-0.071,1.5-1.304,2.662-2.787,2.662
						C1348.009,1681.109,1347.965,1681.109,1347.922,1681.103z M1348.462,1608.911h0.055H1348.462z"/>
					
						<linearGradient id="SVGID_00000134245928951776451860000000794829639193816245_" gradientUnits="userSpaceOnUse" x1="253.8725" y1="1614.1946" x2="75.1624" y2="1873.8824" gradientTransform="matrix(-1 0 0 1 1563.5464 0)">
						<stop  offset="0" style="stop-color:#09005D"/>
						<stop  offset="1" style="stop-color:#1A0F91"/>
					</linearGradient>
					<path style="fill:url(#SVGID_00000134245928951776451860000000794829639193816245_);" d="M1329.439,1683.901
						c2.995,0,5.471-2.373,5.574-5.388c2.362-67.245,1.947-68.762,1.674-69.765c-0.807-2.983-3.905-4.733-6.856-3.921
						c-2.733,0.747-4.439,3.398-4.068,6.13c0.18,4.041-1.069,43.167-1.909,67.164c-0.109,3.081,2.302,5.672,5.383,5.776
						C1329.303,1683.901,1329.374,1683.901,1329.439,1683.901z"/>
					
						<linearGradient id="SVGID_00000116206482882110840770000006749826676589093023_" gradientUnits="userSpaceOnUse" x1="262.7154" y1="1620.2799" x2="84.0048" y2="1879.9685" gradientTransform="matrix(-1 0 0 1 1563.5464 0)">
						<stop  offset="0" style="stop-color:#09005D"/>
						<stop  offset="1" style="stop-color:#1A0F91"/>
					</linearGradient>
					<path style="fill:url(#SVGID_00000116206482882110840770000006749826676589093023_);" d="M1317.337,1681.109
						c1.544,0,2.793-1.249,2.793-2.793v-68.101c0-1.544-1.249-2.793-2.793-2.793c-1.543,0-2.792,1.249-2.792,2.793v68.101
						C1314.545,1679.86,1315.793,1681.109,1317.337,1681.109z"/>
					
						<linearGradient id="SVGID_00000090982724629967941230000009799605359907287995_" gradientUnits="userSpaceOnUse" x1="268.2051" y1="1624.0582" x2="89.4959" y2="1883.7446" gradientTransform="matrix(-1 0 0 1 1563.5464 0)">
						<stop  offset="0" style="stop-color:#09005D"/>
						<stop  offset="1" style="stop-color:#1A0F91"/>
					</linearGradient>
					<path style="fill:url(#SVGID_00000090982724629967941230000009799605359907287995_);" d="M1307.564,1681.109
						c1.516,0,2.76-1.211,2.792-2.727c0.535-23.663,1.784-62.315,2.902-66.961c0.49-0.878,0.485-1.991-0.104-2.896
						c-0.846-1.298-2.574-1.647-3.867-0.802c-1.522,0.997-2.967,1.942-4.516,70.528c-0.032,1.543,1.188,2.82,2.727,2.858H1307.564z"
						/>
					
						<linearGradient id="SVGID_00000163772653872270709340000011822039879696905647_" gradientUnits="userSpaceOnUse" x1="217.0871" y1="1588.8801" x2="38.3772" y2="1848.5675" gradientTransform="matrix(-1 0 0 1 1563.5464 0)">
						<stop  offset="0" style="stop-color:#09005D"/>
						<stop  offset="1" style="stop-color:#1A0F91"/>
					</linearGradient>
					<path style="fill:url(#SVGID_00000163772653872270709340000011822039879696905647_);" d="M1383.89,1687.309
						c2.951,0,5.416-2.312,5.574-5.296l3.725-71.51c0.158-3.081-2.209-5.704-5.29-5.868c-2.923-0.207-5.705,2.209-5.868,5.29
						l-3.725,71.51c-0.158,3.082,2.208,5.705,5.29,5.868C1383.693,1687.309,1383.792,1687.309,1383.89,1687.309z"/>
				</g>
			</g>
			<g>
				
					<linearGradient id="SVGID_00000010287772114626275140000018230139180358259350_" gradientUnits="userSpaceOnUse" x1="-326.9198" y1="720.7125" x2="749.3255" y2="1471.5814" gradientTransform="matrix(-1 0 0 1 1563.5464 0)">
					<stop  offset="0" style="stop-color:#FF928E"/>
					<stop  offset="1" style="stop-color:#FE7062"/>
				</linearGradient>
				<path style="fill:url(#SVGID_00000010287772114626275140000018230139180358259350_);" d="M1208.838,1507.459
					c28.968,0.55,52.747-22.781,52.747-51.754v-230.319c0-30.26-24.319-54.883-54.577-55.212
					c-90.813-0.989-278.112-1.038-431.363,11.876c-20.912,1.762-37.179,18.902-37.937,39.875l-14.323,222.672
					c-1.065,29.453,22.221,54.059,51.688,54.619L1208.838,1507.459z"/>
				<path style="fill:#FFFFFF;" d="M1208.987,1250.305c0.386,19.598-0.196,50.692-0.672,70.782
					c-0.248,10.452-9.424,18.417-19.808,17.2l-74.737-8.759c-9.956-1.167-16.971-10.343-15.485-20.257l9.173-61.198
					c1.303-8.688,8.766-15.116,17.551-15.116h66.234C1200.894,1232.958,1208.797,1240.656,1208.987,1250.305z"/>
				<path style="opacity:0.37;fill:#FFFFFF;" d="M1013.675,1366.284l-62.344,6.725c-8.724,0.942-16.167-6.253-15.525-15.004
					l13.629-185.454c26.134-0.829,51.912-1.433,76.787-1.857v181.615C1026.223,1359.488,1020.813,1365.513,1013.675,1366.284z"/>
				<path style="fill:#FFFFFF;" d="M988.123,1334.14c-0.192,3.336-2.956,5.908-6.255,5.908c-0.123,0-0.245-0.004-0.368-0.012
					c-3.458-0.2-6.099-3.164-5.895-6.622l9.4-161.858c4.215-0.104,8.396-0.198,12.577-0.291L988.123,1334.14z"/>
				<g>
					
						<linearGradient id="SVGID_00000132066447777618695430000013185251809889917064_" gradientUnits="userSpaceOnUse" x1="412.779" y1="1244.4203" x2="278.9962" y2="1438.8231" gradientTransform="matrix(-1 0 0 1 1563.5464 0)">
						<stop  offset="0" style="stop-color:#09005D"/>
						<stop  offset="1" style="stop-color:#1A0F91"/>
					</linearGradient>
					<path style="fill:url(#SVGID_00000132066447777618695430000013185251809889917064_);" d="M1174.424,1308.726
						c1.094,0,2.017-0.849,2.087-1.96l3.233-50.981c0.073-1.151-0.8-2.144-1.956-2.217c-1.213-0.094-2.143,0.804-2.217,1.956
						l-3.233,50.981c-0.073,1.151,0.8,2.143,1.956,2.217C1174.338,1308.726,1174.383,1308.726,1174.424,1308.726z"/>
					
						<linearGradient id="SVGID_00000021096628074849062150000008788448480948836019_" gradientUnits="userSpaceOnUse" x1="417.5895" y1="1247.7308" x2="283.8065" y2="1442.1339" gradientTransform="matrix(-1 0 0 1 1563.5464 0)">
						<stop  offset="0" style="stop-color:#09005D"/>
						<stop  offset="1" style="stop-color:#1A0F91"/>
					</linearGradient>
					<path style="fill:url(#SVGID_00000021096628074849062150000008788448480948836019_);" d="M1167.769,1308.726
						c1.122,0,2.054-0.89,2.09-2.021l1.694-51.956c0.036-1.156-0.87-2.123-2.021-2.16c-1.332-0.065-2.119,0.87-2.16,2.021
						l-1.694,51.957c-0.037,1.155,0.87,2.123,2.021,2.16C1167.699,1308.726,1167.748,1308.726,1167.769,1308.726z"/>
					
						<linearGradient id="SVGID_00000083807639892494012400000006258269915090642344_" gradientUnits="userSpaceOnUse" x1="423.3936" y1="1251.725" x2="289.6107" y2="1446.1281" gradientTransform="matrix(-1 0 0 1 1563.5464 0)">
						<stop  offset="0" style="stop-color:#09005D"/>
						<stop  offset="1" style="stop-color:#1A0F91"/>
					</linearGradient>
					<path style="fill:url(#SVGID_00000083807639892494012400000006258269915090642344_);" d="M1158.746,1308.722
						c-1.155-0.053-2.045-1.033-1.988-2.184c0.829-17.454,2.409-50.744,2.433-51.879c0.008-1.143,0.943-2.07,2.09-2.07
						c1.155,0,2.091,0.935,2.091,2.091c0,0.861-2.033,43.514-2.441,52.054c-0.053,1.123-0.976,1.993-2.087,1.993
						C1158.811,1308.726,1158.778,1308.726,1158.746,1308.722z M1159.15,1254.679h0.041H1159.15z"/>
					
						<linearGradient id="SVGID_00000071517454660513478440000003188374336598225066_" gradientUnits="userSpaceOnUse" x1="433.433" y1="1258.6339" x2="299.6504" y2="1453.0364" gradientTransform="matrix(-1 0 0 1 1563.5464 0)">
						<stop  offset="0" style="stop-color:#09005D"/>
						<stop  offset="1" style="stop-color:#1A0F91"/>
					</linearGradient>
					<path style="fill:url(#SVGID_00000071517454660513478440000003188374336598225066_);" d="M1144.91,1310.816
						c2.242,0,4.095-1.776,4.173-4.034c1.768-50.34,1.458-51.475,1.253-52.226c-0.604-2.233-2.923-3.543-5.132-2.935
						c-2.046,0.559-3.323,2.544-3.046,4.589c0.135,3.025-0.8,32.315-1.429,50.279c-0.082,2.307,1.723,4.246,4.029,4.324
						C1144.808,1310.816,1144.861,1310.816,1144.91,1310.816z"/>
					
						<linearGradient id="SVGID_00000084507350565365456500000003612645459350933378_" gradientUnits="userSpaceOnUse" x1="440.0528" y1="1263.1895" x2="306.27" y2="1457.5923" gradientTransform="matrix(-1 0 0 1 1563.5464 0)">
						<stop  offset="0" style="stop-color:#09005D"/>
						<stop  offset="1" style="stop-color:#1A0F91"/>
					</linearGradient>
					<path style="fill:url(#SVGID_00000084507350565365456500000003612645459350933378_);" d="M1135.85,1308.726
						c1.156,0,2.091-0.935,2.091-2.091v-50.981c0-1.156-0.935-2.09-2.091-2.09c-1.155,0-2.09,0.935-2.09,2.09v50.981
						C1133.76,1307.791,1134.694,1308.726,1135.85,1308.726z"/>
					
						<linearGradient id="SVGID_00000178193797415013662670000005395861546340412053_" gradientUnits="userSpaceOnUse" x1="444.1624" y1="1266.0177" x2="310.3804" y2="1460.4194" gradientTransform="matrix(-1 0 0 1 1563.5464 0)">
						<stop  offset="0" style="stop-color:#09005D"/>
						<stop  offset="1" style="stop-color:#1A0F91"/>
					</linearGradient>
					<path style="fill:url(#SVGID_00000178193797415013662670000005395861546340412053_);" d="M1128.534,1308.726
						c1.135,0,2.066-0.906,2.09-2.042c0.4-17.714,1.335-46.649,2.172-50.127c0.367-0.657,0.363-1.49-0.078-2.168
						c-0.633-0.972-1.927-1.233-2.895-0.6c-1.139,0.747-2.221,1.453-3.38,52.798c-0.024,1.155,0.89,2.111,2.041,2.139H1128.534z"/>
					
						<linearGradient id="SVGID_00000178916730718008453860000007543187438201413506_" gradientUnits="userSpaceOnUse" x1="405.8954" y1="1239.6835" x2="272.1131" y2="1434.0856" gradientTransform="matrix(-1 0 0 1 1563.5464 0)">
						<stop  offset="0" style="stop-color:#09005D"/>
						<stop  offset="1" style="stop-color:#1A0F91"/>
					</linearGradient>
					<path style="fill:url(#SVGID_00000178916730718008453860000007543187438201413506_);" d="M1185.671,1313.368
						c2.209,0,4.054-1.731,4.173-3.964l2.788-53.533c0.119-2.307-1.654-4.27-3.96-4.393c-2.188-0.155-4.271,1.654-4.393,3.96
						l-2.788,53.533c-0.119,2.307,1.653,4.27,3.96,4.393C1185.525,1313.368,1185.598,1313.368,1185.671,1313.368z"/>
				</g>
			</g>
			
				<linearGradient id="SVGID_00000154425037137034764700000010655997048076608419_" gradientUnits="userSpaceOnUse" x1="2922.0078" y1="1347.4497" x2="3141.7227" y2="2382.1389" gradientTransform="matrix(-0.9937 -0.1123 -0.1123 0.9937 3848.0139 117.0656)">
				<stop  offset="0" style="stop-color:#FEBBBA"/>
				<stop  offset="1" style="stop-color:#FF928E"/>
			</linearGradient>
			<path style="fill:url(#SVGID_00000154425037137034764700000010655997048076608419_);" d="M702.934,1303.336
				c12.743-3.126,41.364-41.848,44.409-27.7c3.045,14.147-5.587,32.087-4.306,38.101c1.281,6.016,10.886,39.713,3.252,53.852
				c-5.508,10.203-16.32,42.293-21.913,59.37c-1.857,5.667-3.367,13.152-9.295,12.486c-5.927-0.667-10.518-8.642-11.07-14.581
				C703.79,1422.482,690.191,1306.461,702.934,1303.336z"/>
			<g>
				
					<linearGradient id="SVGID_00000161631992705861206190000006318395559114106043_" gradientUnits="userSpaceOnUse" x1="1479.4255" y1="1568.5719" x2="1673.2571" y2="1568.5719">
					<stop  offset="0" style="stop-color:#090056"/>
					<stop  offset="1" style="stop-color:#020039"/>
				</linearGradient>
				<path style="fill:url(#SVGID_00000161631992705861206190000006318395559114106043_);" d="M1615.928,1351.113
					c-15.692-36.01-65.709-79.854-68.326-80.685c-21.735,79.729-59.984,145.578-68.177,225.949
					c53.626,98.498,41.332,214.662,7.842,271.152c16.469,24.462,35.728,57.762,52.413,99.188
					C1745.871,1743.296,1664.25,1462,1615.928,1351.113z"/>
				
					<linearGradient id="SVGID_00000144324645514533406990000012804364836534293899_" gradientUnits="userSpaceOnUse" x1="1130.5433" y1="-13330.6934" x2="1477.6956" y2="-14218.6006" gradientTransform="matrix(-1 0 0 1 -3471.8828 0)">
					<stop  offset="0" style="stop-color:#FEBBBA"/>
					<stop  offset="1" style="stop-color:#FF928E"/>
				</linearGradient>
				<path style="fill:url(#SVGID_00000144324645514533406990000012804364836534293899_);" d="M1351.091,1956.026l-178.521-3.886
					c0,0,155.674-44.004,165.334-32.019c0,0,96.487-63.405,149.364-152.594c16.468,24.464,35.726,57.763,52.412,99.188
					C1492.277,1894.543,1430.024,1942.886,1351.091,1956.026z"/>
				
					<linearGradient id="SVGID_00000128467120171822985150000004398319403801188767_" gradientUnits="userSpaceOnUse" x1="1314.8868" y1="1756.3806" x2="1662.038" y2="868.4759">
					<stop  offset="0" style="stop-color:#FEBBBA"/>
					<stop  offset="1" style="stop-color:#FF928E"/>
				</linearGradient>
				<path style="fill:url(#SVGID_00000128467120171822985150000004398319403801188767_);" d="M1356.124,1925.114
					c0,0,3.682,71.13-89.687,60.8c-50.743-5.614-132.665-52.926-132.665-52.926S1347.298,1932.421,1356.124,1925.114z"/>
			</g>
		</g>
	</g>
</g>
</svg>
